<svg width="27" height="23" viewBox="0 0 27 23" fill="none" xmlns="http://www.w3.org/2000/svg">
<path d="M13.5 19.5294V14.5882L9.75 10.8824L16 5.94118L18.5 9.64706H22.25M1 18.2941C1 19.277 1.39509 20.2196 2.09835 20.9146C2.80161 21.6096 3.75544 22 4.75 22C5.74456 22 6.69839 21.6096 7.40165 20.9146C8.10491 20.2196 8.5 19.277 8.5 18.2941C8.5 17.3113 8.10491 16.3687 7.40165 15.6737C6.69839 14.9787 5.74456 14.5882 4.75 14.5882C3.75544 14.5882 2.80161 14.9787 2.09835 15.6737C1.39509 16.3687 1 17.3113 1 18.2941ZM18.5 18.2941C18.5 19.277 18.8951 20.2196 19.5983 20.9146C20.3016 21.6096 21.2554 22 22.25 22C23.2446 22 24.1984 21.6096 24.9017 20.9146C25.6049 20.2196 26 19.277 26 18.2941C26 17.3113 25.6049 16.3687 24.9017 15.6737C24.1984 14.9787 23.2446 14.5882 22.25 14.5882C21.2554 14.5882 20.3016 14.9787 19.5983 15.6737C18.8951 16.3687 18.5 17.3113 18.5 18.2941ZM18.5 2.23529C18.5 2.56291 18.6317 2.87712 18.8661 3.10878C19.1005 3.34044 19.4185 3.47059 19.75 3.47059C20.0815 3.47059 20.3995 3.34044 20.6339 3.10878C20.8683 2.87712 21 2.56291 21 2.23529C21 1.90767 20.8683 1.59347 20.6339 1.36181C20.3995 1.13015 20.0815 1 19.75 1C19.4185 1 19.1005 1.13015 18.8661 1.36181C18.6317 1.59347 18.5 1.90767 18.5 2.23529Z" stroke="#3555EB" stroke-width="1.5" stroke-linecap="round" stroke-linejoin="round"/>
<path d="M22 13C20.6789 13.0159 19.4163 13.5478 18.4821 14.4821C17.5478 15.4163 17.0159 16.6789 17 18C17.0159 19.3211 17.5478 20.5837 18.4821 21.5179C19.4163 22.4522 20.6789 22.9841 22 23C23.3211 22.9841 24.5837 22.4522 25.5179 21.5179C26.4522 20.5837 26.9841 19.3211 27 18C26.9841 16.6789 26.4522 15.4163 25.5179 14.4821C24.5837 13.5478 23.3211 13.0159 22 13ZM24.8571 18.3571H22.3571V20.8571H21.6429V18.3571H19.1429V17.6429H21.6429V15.1429H22.3571V17.6429H24.8571V18.3571Z" fill="#3555EB"/>
</svg>
