<svg width="19" height="22" viewBox="0 0 19 22" fill="none" xmlns="http://www.w3.org/2000/svg">
<path d="M18.9996 11.4299C19.0065 11.2895 18.9321 11.1586 18.8114 11.0984C18.6902 11.0377 18.5473 11.0609 18.4487 11.1557C17.6965 11.877 16.124 13.0431 14.0397 12.7438C12.6117 12.5388 11.6065 11.7386 11.0148 11.1037C10.9192 11.0013 10.7736 10.9716 10.6478 11.0287C10.5226 11.0863 10.4438 11.2192 10.4504 11.3627C10.5442 13.4662 11.0498 15.5824 11.9123 17.4826C12.5772 18.9421 13.4431 20.2748 14.4865 21.444C14.5487 21.5133 14.6357 21.5528 14.7266 21.5528C14.8175 21.5528 14.9046 21.5133 14.9668 21.4435C16.0102 20.2741 16.8762 18.9416 17.541 17.4817C18.4046 15.5813 18.8953 13.5451 18.9997 11.4299L18.9996 11.4299ZM14.7265 20.693C13.8359 19.6436 13.09 18.4641 12.5064 17.1828C11.7975 15.6211 11.3405 13.9065 11.1694 12.1779C11.8398 12.73 12.7644 13.2606 13.9503 13.4309C15.8498 13.705 17.3806 12.8736 18.2829 12.188C18.1118 13.9277 17.6638 15.6045 16.9466 17.183C16.3629 18.4641 15.617 19.6433 14.7264 20.6932L14.7265 20.693Z" fill="#3555EB"/>
<path d="M17.0848 13.4482C16.9421 13.6837 16.7489 13.887 16.5266 14.0358C16.2106 14.2478 15.8968 14.3127 15.6893 14.3295L15.7407 15.0212C16.0226 14.9979 16.4493 14.9098 16.88 14.6212C17.1832 14.4184 17.4457 14.1419 17.6402 13.8215L17.0848 13.4482Z" fill="#3555EB"/>
<path d="M13.764 14.3298C13.5565 14.3127 13.2427 14.2479 12.9265 14.0361C12.7041 13.8873 12.5114 13.684 12.3687 13.4485L11.8129 13.8216C12.0069 14.1418 12.2699 14.4185 12.5726 14.6213C13.0036 14.9099 13.4303 14.9981 13.7123 15.0213L13.764 14.3298Z" fill="#3555EB"/>
<path d="M16.2515 15.7404L14.7266 16.3827L13.2017 15.7404C13.0723 15.6864 12.9243 15.7234 12.8321 15.8333C12.7398 15.9436 12.7237 16.1027 12.7912 16.2311L14.4386 19.3525C14.4965 19.4624 14.607 19.5307 14.7266 19.5307C14.8462 19.5307 14.9566 19.4624 15.0146 19.3525L16.662 16.2311C16.7298 16.1027 16.7133 15.9436 16.6211 15.8333C16.5292 15.7234 16.3806 15.6862 16.2515 15.7404ZM14.7266 18.47L13.8173 16.747L14.6041 17.0785C14.6828 17.1115 14.7702 17.1115 14.8489 17.0785L15.6357 16.747L14.7266 18.47Z" fill="#3555EB"/>
<rect x="0.5" y="0.5" width="7.55" height="8" stroke="#3555EB"/>
<rect x="0.5" y="11.5" width="7.55" height="8" stroke="#3555EB"/>
<rect x="10.95" y="0.5" width="7.55" height="8" stroke="#3555EB"/>
</svg>
