<svg width="26" height="26" viewBox="0 0 26 26" fill="none" xmlns="http://www.w3.org/2000/svg">
<path d="M14.2188 18.2812C14.2188 18.5223 14.1473 18.7579 14.0134 18.9583C13.8794 19.1588 13.6891 19.315 13.4664 19.4072C13.2437 19.4995 12.9987 19.5236 12.7622 19.4766C12.5258 19.4296 12.3087 19.3135 12.1382 19.143C11.9678 18.9726 11.8517 18.7554 11.8047 18.519C11.7576 18.2826 11.7818 18.0376 11.874 17.8149C11.9663 17.5922 12.1225 17.4018 12.3229 17.2679C12.5233 17.134 12.759 17.0625 13 17.0625C13.3232 17.0625 13.6332 17.1909 13.8618 17.4195C14.0903 17.648 14.2188 17.958 14.2188 18.2812ZM13 7.3125C10.7595 7.3125 8.9375 8.95273 8.9375 10.9687V11.375C8.9375 11.5905 9.02311 11.7971 9.17548 11.9495C9.32785 12.1019 9.53452 12.1875 9.75 12.1875C9.96549 12.1875 10.1722 12.1019 10.3245 11.9495C10.4769 11.7971 10.5625 11.5905 10.5625 11.375V10.9687C10.5625 9.85156 11.6563 8.9375 13 8.9375C14.3437 8.9375 15.4375 9.85156 15.4375 10.9687C15.4375 12.0859 14.3437 13 13 13C12.7845 13 12.5779 13.0856 12.4255 13.238C12.2731 13.3903 12.1875 13.597 12.1875 13.8125V14.625C12.1875 14.8405 12.2731 15.0472 12.4255 15.1995C12.5779 15.3519 12.7845 15.4375 13 15.4375C13.2155 15.4375 13.4222 15.3519 13.5745 15.1995C13.7269 15.0472 13.8125 14.8405 13.8125 14.625V14.5519C15.665 14.2116 17.0625 12.7339 17.0625 10.9687C17.0625 8.95273 15.2405 7.3125 13 7.3125ZM23.5625 13C23.5625 15.0891 22.943 17.1312 21.7824 18.8682C20.6218 20.6052 18.9721 21.959 17.0421 22.7585C15.1121 23.5579 12.9883 23.7671 10.9394 23.3595C8.89044 22.952 7.00838 21.946 5.53119 20.4688C4.054 18.9916 3.04802 17.1096 2.64046 15.0606C2.2329 13.0117 2.44208 10.8879 3.24153 8.95791C4.04098 7.02786 5.3948 5.37822 7.13179 4.2176C8.86879 3.05698 10.9109 2.4375 13 2.4375C15.8004 2.44046 18.4853 3.55424 20.4656 5.53445C22.4458 7.51466 23.5595 10.1996 23.5625 13ZM21.9375 13C21.9375 11.2323 21.4133 9.50435 20.4313 8.03459C19.4492 6.56483 18.0534 5.41928 16.4202 4.74283C14.7871 4.06637 12.9901 3.88938 11.2564 4.23423C9.52268 4.57909 7.93017 5.4303 6.68024 6.68023C5.43031 7.93016 4.57909 9.52268 4.23424 11.2564C3.88938 12.9901 4.06637 14.7871 4.74283 16.4202C5.41929 18.0533 6.56483 19.4492 8.0346 20.4313C9.50436 21.4133 11.2323 21.9375 13 21.9375C15.3696 21.9348 17.6413 20.9923 19.3168 19.3168C20.9923 17.6413 21.9348 15.3695 21.9375 13Z" fill="#3555EB"/>
</svg>
