<svg width="28" height="24" viewBox="0 0 28 24" fill="none" xmlns="http://www.w3.org/2000/svg">
<path d="M13.5 19.5294V14.5882L9.75 10.8824L16 5.94118L18.5 9.64706H22.25M1 18.2941C1 19.277 1.39509 20.2196 2.09835 20.9146C2.80161 21.6096 3.75544 22 4.75 22C5.74456 22 6.69839 21.6096 7.40165 20.9146C8.10491 20.2196 8.5 19.277 8.5 18.2941C8.5 17.3113 8.10491 16.3687 7.40165 15.6737C6.69839 14.9787 5.74456 14.5882 4.75 14.5882C3.75544 14.5882 2.80161 14.9787 2.09835 15.6737C1.39509 16.3687 1 17.3113 1 18.2941ZM18.5 18.2941C18.5 19.277 18.8951 20.2196 19.5983 20.9146C20.3016 21.6096 21.2554 22 22.25 22C23.2446 22 24.1984 21.6096 24.9017 20.9146C25.6049 20.2196 26 19.277 26 18.2941C26 17.3113 25.6049 16.3687 24.9017 15.6737C24.1984 14.9787 23.2446 14.5882 22.25 14.5882C21.2554 14.5882 20.3016 14.9787 19.5983 15.6737C18.8951 16.3687 18.5 17.3113 18.5 18.2941ZM18.5 2.23529C18.5 2.56291 18.6317 2.87712 18.8661 3.10878C19.1005 3.34044 19.4185 3.47059 19.75 3.47059C20.0815 3.47059 20.3995 3.34044 20.6339 3.10878C20.8683 2.87712 21 2.56291 21 2.23529C21 1.90767 20.8683 1.59347 20.6339 1.36181C20.3995 1.13015 20.0815 1 19.75 1C19.4185 1 19.1005 1.13015 18.8661 1.36181C18.6317 1.59347 18.5 1.90767 18.5 2.23529Z" stroke="#3555EB" stroke-width="1.5" stroke-linecap="round" stroke-linejoin="round"/>
<path d="M22.5021 16.3662C22.114 16.3662 21.7506 16.5218 21.4754 16.8061C21.2015 17.0904 21.0496 17.466 21.0496 17.867C21.0496 18.268 21.2015 18.6435 21.4754 18.9278C21.7506 19.2108 22.114 19.3677 22.5021 19.3677C22.8902 19.3677 23.2537 19.2108 23.5288 18.9278C23.8027 18.6435 23.9546 18.268 23.9546 17.867C23.9546 17.466 23.8027 17.0904 23.5288 16.8061C23.3944 16.6662 23.2345 16.5552 23.0582 16.4797C22.8819 16.4042 22.6929 16.3656 22.5021 16.3662ZM27.8538 19.5247L27.0049 18.7749C27.0451 18.5201 27.0659 18.2599 27.0659 18.0011C27.0659 17.7422 27.0451 17.4807 27.0049 17.2272L27.8538 16.4775C27.9179 16.4208 27.9638 16.3452 27.9854 16.2609C28.0069 16.1766 28.0031 16.0875 27.9745 16.0054L27.9628 15.9705C27.7292 15.2955 27.3791 14.6698 26.9296 14.1238L26.9062 14.0956C26.8516 14.0293 26.7789 13.9816 26.6976 13.9588C26.6162 13.9361 26.5301 13.9394 26.4506 13.9682L25.3967 14.3558C25.0073 14.0258 24.5737 13.7657 24.1038 13.5846L23.9001 12.4459C23.8847 12.3602 23.8444 12.2812 23.7846 12.2197C23.7248 12.1581 23.6483 12.1168 23.5652 12.1013L23.5301 12.0946C22.8552 11.9685 22.1439 11.9685 21.4689 12.0946L21.4339 12.1013C21.3508 12.1168 21.2743 12.1581 21.2144 12.2197C21.1546 12.2812 21.1143 12.3602 21.099 12.4459L20.8939 13.59C20.4285 13.7725 19.9949 14.032 19.6102 14.3585L18.5484 13.9682C18.4689 13.9391 18.3828 13.9358 18.3014 13.9585C18.22 13.9813 18.1473 14.0291 18.0928 14.0956L18.0694 14.1238C17.6207 14.6704 17.2707 15.2959 17.0362 15.9705L17.0245 16.0054C16.9661 16.1731 17.0142 16.3608 17.1453 16.4775L18.0045 17.2353C17.9643 17.4874 17.9448 17.7449 17.9448 17.9997C17.9448 18.2573 17.9643 18.5148 18.0045 18.7642L17.1479 19.522C17.0837 19.5787 17.0378 19.6543 17.0163 19.7386C16.9947 19.8229 16.9985 19.912 17.0271 19.9941L17.0388 20.0289C17.2738 20.7036 17.6203 21.3272 18.072 21.8757L18.0954 21.9039C18.15 21.9702 18.2227 22.0179 18.3041 22.0406C18.3854 22.0634 18.4715 22.0601 18.551 22.0313L19.6128 21.641C19.9996 21.9696 20.4305 22.2298 20.8965 22.4095L21.1016 23.5536C21.1169 23.6393 21.1572 23.7182 21.217 23.7798C21.2768 23.8414 21.3534 23.8827 21.4365 23.8982L21.4715 23.9049C22.1531 24.0317 22.8511 24.0317 23.5327 23.9049L23.5678 23.8982C23.6508 23.8827 23.7274 23.8414 23.7872 23.7798C23.847 23.7182 23.8873 23.6393 23.9027 23.5536L24.1064 22.4149C24.5763 22.2325 25.0098 21.9736 25.3993 21.6437L26.4532 22.0313C26.5327 22.0604 26.6189 22.0637 26.7002 22.041C26.7816 22.0182 26.8544 21.9704 26.9088 21.9039L26.9322 21.8757C27.3839 21.3245 27.7305 20.7036 27.9654 20.0289L27.9771 19.9941C28.0329 19.8278 27.9849 19.6413 27.8538 19.5247ZM22.5021 20.2248C21.2418 20.2248 20.2202 19.1693 20.2202 17.867C20.2202 16.5647 21.2418 15.5092 22.5021 15.5092C23.7625 15.5092 24.784 16.5647 24.784 17.867C24.784 19.1693 23.7625 20.2248 22.5021 20.2248Z" fill="#3555EB"/>
</svg>
