<svg width="19" height="19" viewBox="0 0 19 19" fill="none" xmlns="http://www.w3.org/2000/svg">
<path d="M6.84884 0H1.54651C1.13635 0 0.74299 0.162936 0.452963 0.452963C0.162936 0.74299 0 1.13635 0 1.54651V6.84884C0 7.05193 0.0400016 7.25303 0.117721 7.44066C0.195441 7.62829 0.309356 7.79878 0.452963 7.94239C0.59657 8.08599 0.767056 8.19991 0.954687 8.27763C1.14232 8.35535 1.34342 8.39535 1.54651 8.39535H6.84884C7.05193 8.39535 7.25303 8.35535 7.44066 8.27763C7.62829 8.19991 7.79878 8.08599 7.94239 7.94239C8.08599 7.79878 8.19991 7.62829 8.27763 7.44066C8.35535 7.25303 8.39535 7.05193 8.39535 6.84884V1.54651C8.39535 1.34342 8.35535 1.14232 8.27763 0.954687C8.19991 0.767056 8.08599 0.59657 7.94239 0.452963C7.79878 0.309356 7.62829 0.195441 7.44066 0.117721C7.25303 0.0400016 7.05193 0 6.84884 0ZM7.06977 6.84884C7.06977 6.90743 7.04649 6.96363 7.00506 7.00506C6.96363 7.04649 6.90743 7.06977 6.84884 7.06977H1.54651C1.48792 7.06977 1.43172 7.04649 1.39029 7.00506C1.34886 6.96363 1.32558 6.90743 1.32558 6.84884V1.54651C1.32558 1.48792 1.34886 1.43172 1.39029 1.39029C1.43172 1.34886 1.48792 1.32558 1.54651 1.32558H6.84884C6.90743 1.32558 6.96363 1.34886 7.00506 1.39029C7.04649 1.43172 7.06977 1.48792 7.06977 1.54651V6.84884ZM6.84884 10.6047H1.54651C1.13635 10.6047 0.74299 10.7676 0.452963 11.0576C0.162936 11.3476 0 11.741 0 12.1512V17.4535C0 17.8636 0.162936 18.257 0.452963 18.547C0.74299 18.8371 1.13635 19 1.54651 19H6.84884C7.05193 19 7.25303 18.96 7.44066 18.8823C7.62829 18.8046 7.79878 18.6906 7.94239 18.547C8.08599 18.4034 8.19991 18.2329 8.27763 18.0453C8.35535 17.8577 8.39535 17.6566 8.39535 17.4535V12.1512C8.39535 11.9481 8.35535 11.747 8.27763 11.5593C8.19991 11.3717 8.08599 11.2012 7.94239 11.0576C7.79878 10.914 7.62829 10.8001 7.44066 10.7224C7.25303 10.6447 7.05193 10.6047 6.84884 10.6047ZM7.06977 17.4535C7.06977 17.5121 7.04649 17.5683 7.00506 17.6097C6.96363 17.6511 6.90743 17.6744 6.84884 17.6744H1.54651C1.48792 17.6744 1.43172 17.6511 1.39029 17.6097C1.34886 17.5683 1.32558 17.5121 1.32558 17.4535V12.1512C1.32558 12.0926 1.34886 12.0364 1.39029 11.9949C1.43172 11.9535 1.48792 11.9302 1.54651 11.9302H6.84884C6.90743 11.9302 6.96363 11.9535 7.00506 11.9949C7.04649 12.0364 7.06977 12.0926 7.06977 12.1512V17.4535ZM17.4535 0H12.1512C11.741 0 11.3476 0.162936 11.0576 0.452963C10.7676 0.74299 10.6047 1.13635 10.6047 1.54651V6.84884C10.6047 7.05193 10.6447 7.25303 10.7224 7.44066C10.8001 7.62829 10.914 7.79878 11.0576 7.94239C11.2012 8.08599 11.3717 8.19991 11.5593 8.27763C11.747 8.35535 11.9481 8.39535 12.1512 8.39535H17.4535C17.6566 8.39535 17.8577 8.35535 18.0453 8.27763C18.2329 8.19991 18.4034 8.08599 18.547 7.94239C18.6906 7.79878 18.8046 7.62829 18.8823 7.44066C18.96 7.25303 19 7.05193 19 6.84884V1.54651C19 1.13635 18.8371 0.74299 18.547 0.452963C18.257 0.162936 17.8636 0 17.4535 0ZM17.6744 6.84884C17.6744 6.90743 17.6511 6.96363 17.6097 7.00506C17.5683 7.04649 17.5121 7.06977 17.4535 7.06977H12.1512C12.0926 7.06977 12.0364 7.04649 11.9949 7.00506C11.9535 6.96363 11.9302 6.90743 11.9302 6.84884V1.54651C11.9302 1.48792 11.9535 1.43172 11.9949 1.39029C12.0364 1.34886 12.0926 1.32558 12.1512 1.32558H17.4535C17.5121 1.32558 17.5683 1.34886 17.6097 1.39029C17.6511 1.43172 17.6744 1.48792 17.6744 1.54651V6.84884ZM10.6047 14.8023V11.2674C10.6047 11.0917 10.6745 10.9231 10.7988 10.7988C10.9231 10.6745 11.0917 10.6047 11.2674 10.6047C11.4432 10.6047 11.6118 10.6745 11.7361 10.7988C11.8604 10.9231 11.9302 11.0917 11.9302 11.2674V14.8023C11.9302 14.9781 11.8604 15.1467 11.7361 15.271C11.6118 15.3953 11.4432 15.4651 11.2674 15.4651C11.0917 15.4651 10.9231 15.3953 10.7988 15.271C10.6745 15.1467 10.6047 14.9781 10.6047 14.8023ZM19 13.0349C19 13.2107 18.9302 13.3793 18.8059 13.5035C18.6816 13.6278 18.513 13.6977 18.3372 13.6977H15.4651V18.3372C15.4651 18.513 15.3953 18.6816 15.271 18.8059C15.1467 18.9302 14.9781 19 14.8023 19H11.2674C11.0917 19 10.9231 18.9302 10.7988 18.8059C10.6745 18.6816 10.6047 18.513 10.6047 18.3372C10.6047 18.1614 10.6745 17.9928 10.7988 17.8685C10.9231 17.7442 11.0917 17.6744 11.2674 17.6744H14.1395V11.2674C14.1395 11.0917 14.2094 10.9231 14.3337 10.7988C14.458 10.6745 14.6265 10.6047 14.8023 10.6047C14.9781 10.6047 15.1467 10.6745 15.271 10.7988C15.3953 10.9231 15.4651 11.0917 15.4651 11.2674V12.3721H18.3372C18.513 12.3721 18.6816 12.4419 18.8059 12.5662C18.9302 12.6905 19 12.8591 19 13.0349ZM19 16.5698V18.3372C19 18.513 18.9302 18.6816 18.8059 18.8059C18.6816 18.9302 18.513 19 18.3372 19C18.1614 19 17.9928 18.9302 17.8685 18.8059C17.7442 18.6816 17.6744 18.513 17.6744 18.3372V16.5698C17.6744 16.394 17.7442 16.2254 17.8685 16.1011C17.9928 15.9768 18.1614 15.907 18.3372 15.907C18.513 15.907 18.6816 15.9768 18.8059 16.1011C18.9302 16.2254 19 16.394 19 16.5698Z" fill="#3555EB"/>
</svg>
